<?xml version="1.0" encoding="UTF-8"?>
<svg width="700pt" height="700pt" version="1.1" viewBox="0 0 700 700" xmlns="http://www.w3.org/2000/svg">
 <path d="m603.75 207.02-227.5-130.2c-7.9805-4.6055-17.035-7.0312-26.25-7.0312s-18.27 2.4258-26.25 7.0312l-227.5 130.2c-4.2266 2.2109-7.3672 6.0508-8.6953 10.633-1.3281 4.5781-0.73047 9.5039 1.6562 13.633 2.3867 4.1289 6.3555 7.1055 10.988 8.2383 4.6328 1.1367 9.5273 0.33203 13.551-2.2266l26.25-15.051v215.25c0 13.926 5.5312 27.277 15.375 37.125 9.8477 9.8438 23.199 15.375 37.125 15.375h315c13.926 0 27.277-5.5312 37.125-15.375 9.8438-9.8477 15.375-23.199 15.375-37.125v-215.25l26.25 15.051c4.0352 2.3359 8.8359 2.9688 13.336 1.75 4.5-1.2148 8.3281-4.1758 10.641-8.2266 2.2812-4.0156 2.8789-8.7734 1.668-13.234-1.2148-4.457-4.1406-8.2578-8.1445-10.566zm-201.25 247.98h-105v-122.5c0-4.6406 1.8438-9.0938 5.125-12.375s7.7344-5.125 12.375-5.125h70c4.6406 0 9.0938 1.8438 12.375 5.125s5.125 7.7344 5.125 12.375zm122.5-17.5c0 4.6406-1.8438 9.0938-5.125 12.375s-7.7344 5.125-12.375 5.125h-70v-122.5c0-13.926-5.5312-27.277-15.375-37.125-9.8477-9.8438-23.199-15.375-37.125-15.375h-70c-13.926 0-27.277 5.5312-37.125 15.375-9.8438 9.8477-15.375 23.199-15.375 37.125v122.5h-70c-4.6406 0-9.0938-1.8438-12.375-5.125s-5.125-7.7344-5.125-12.375v-235.2l166.25-95.023v-0.003906c2.6602-1.5352 5.6797-2.3438 8.75-2.3438s6.0898 0.80859 8.75 2.3438l166.25 95.027z"/>
</svg>
