<?xml version="1.0" encoding="UTF-8"?>
<svg width="700pt" height="700pt" version="1.1" viewBox="0 0 700 700" xmlns="http://www.w3.org/2000/svg" xmlns:xlink="http://www.w3.org/1999/xlink">
 <defs>
  <symbol id="v" overflow="visible">
   <path d="m10.812-0.64062c-0.55469 0.28125-1.1328 0.49609-1.7344 0.64062-0.60547 0.15625-1.2344 0.23438-1.8906 0.23438-1.9688 0-3.5273-0.54688-4.6719-1.6406-1.1484-1.1016-1.7188-2.5938-1.7188-4.4688s0.57031-3.3594 1.7188-4.4531c1.1445-1.1016 2.7031-1.6562 4.6719-1.6562 0.65625 0 1.2852 0.078125 1.8906 0.23438 0.60156 0.14844 1.1797 0.35938 1.7344 0.64062v2.4375c-0.5625-0.38281-1.1211-0.66406-1.6719-0.84375-0.54297-0.17578-1.1172-0.26562-1.7188-0.26562-1.0859 0-1.9375 0.35156-2.5625 1.0469-0.61719 0.6875-0.92188 1.6406-0.92188 2.8594s0.30469 2.1797 0.92188 2.875c0.625 0.6875 1.4766 1.0312 2.5625 1.0312 0.60156 0 1.1758-0.085938 1.7188-0.26562 0.55078-0.17578 1.1094-0.45703 1.6719-0.84375z"/>
  </symbol>
  <symbol id="d" overflow="visible">
   <path d="m7.9062-6.4219c-0.24219-0.11328-0.48438-0.19531-0.73438-0.25-0.24219-0.0625-0.48438-0.09375-0.73438-0.09375-0.73047 0-1.293 0.23438-1.6875 0.70312-0.38672 0.46875-0.57812 1.1367-0.57812 2v4.0625h-2.8125v-8.8281h2.8125v1.4531c0.36328-0.58203 0.78125-1.0039 1.25-1.2656 0.46875-0.26953 1.0312-0.40625 1.6875-0.40625 0.10156 0 0.20703 0.007813 0.3125 0.015625 0.11328 0.011719 0.27344 0.027344 0.48438 0.046875z"/>
  </symbol>
  <symbol id="b" overflow="visible">
   <path d="m10.172-4.4375v0.79688h-6.6094c0.070312 0.66797 0.3125 1.168 0.71875 1.5 0.41406 0.33594 0.98828 0.5 1.7188 0.5 0.59375 0 1.2031-0.085937 1.8281-0.26562 0.625-0.17578 1.2656-0.44531 1.9219-0.8125v2.1875c-0.66797 0.25-1.3359 0.4375-2 0.5625-0.66797 0.13281-1.3359 0.20312-2 0.20312-1.6055 0-2.8516-0.40625-3.7344-1.2188-0.88672-0.8125-1.3281-1.9531-1.3281-3.4219 0-1.4375 0.42969-2.5664 1.2969-3.3906 0.875-0.83203 2.0781-1.25 3.6094-1.25 1.3828 0 2.4922 0.42188 3.3281 1.2656 0.83203 0.83594 1.25 1.9492 1.25 3.3438zm-2.9062-0.9375c0-0.53125-0.15625-0.95703-0.46875-1.2812-0.3125-0.33203-0.71875-0.5-1.2188-0.5-0.55469 0-1 0.15625-1.3438 0.46875-0.33594 0.30469-0.54297 0.74219-0.625 1.3125z"/>
  </symbol>
  <symbol id="c" overflow="visible">
   <path d="m5.3125-3.9688c-0.59375 0-1.043 0.10156-1.3438 0.29688-0.29297 0.19922-0.4375 0.49219-0.4375 0.875 0 0.36719 0.11719 0.65234 0.35938 0.85938 0.23828 0.19922 0.57031 0.29688 1 0.29688 0.53125 0 0.97656-0.19141 1.3438-0.57812 0.36328-0.38281 0.54688-0.86328 0.54688-1.4375v-0.3125zm4.3125-1.0625v5.0312h-2.8438v-1.3125c-0.38672 0.54297-0.8125 0.9375-1.2812 1.1875-0.46875 0.23828-1.043 0.35938-1.7188 0.35938-0.91797 0-1.6641-0.26562-2.2344-0.79688-0.57422-0.53906-0.85938-1.2344-0.85938-2.0781 0-1.0391 0.35156-1.8008 1.0625-2.2812 0.71875-0.48828 1.8359-0.73438 3.3594-0.73438h1.6719v-0.21875c0-0.44531-0.17969-0.76953-0.53125-0.96875-0.35547-0.20703-0.90234-0.3125-1.6406-0.3125-0.60547 0-1.168 0.0625-1.6875 0.1875-0.52344 0.11719-1.0078 0.29297-1.4531 0.53125v-2.1562c0.60156-0.14453 1.207-0.25391 1.8125-0.32812 0.61328-0.082031 1.2227-0.125 1.8281-0.125 1.5938 0 2.7422 0.32031 3.4531 0.95312 0.70703 0.625 1.0625 1.6484 1.0625 3.0625z"/>
  </symbol>
  <symbol id="a" overflow="visible">
   <path d="m4.4375-11.328v2.5h2.9062v2.0156h-2.9062v3.75c0 0.40625 0.078125 0.68359 0.23438 0.82812 0.16406 0.14844 0.49219 0.21875 0.98438 0.21875h1.4375v2.0156h-2.4062c-1.1172 0-1.9062-0.22656-2.375-0.6875-0.46875-0.46875-0.70312-1.2578-0.70312-2.375v-3.75h-1.3906v-2.0156h1.3906v-2.5z"/>
  </symbol>
  <symbol id="g" overflow="visible">
   <path d="m7.3594-7.5312v-4.7344h2.8438v12.266h-2.8438v-1.2812c-0.38672 0.52344-0.8125 0.90625-1.2812 1.1562-0.46875 0.23828-1.0117 0.35938-1.625 0.35938-1.0859 0-1.9805-0.42969-2.6875-1.2969-0.69922-0.86328-1.0469-1.9766-1.0469-3.3438 0-1.3633 0.34766-2.4766 1.0469-3.3438 0.70703-0.86328 1.6016-1.2969 2.6875-1.2969 0.60156 0 1.1406 0.125 1.6094 0.375 0.47656 0.24219 0.91016 0.62109 1.2969 1.1406zm-1.8594 5.7031c0.60156 0 1.0625-0.21875 1.375-0.65625 0.32031-0.4375 0.48438-1.0781 0.48438-1.9219s-0.16406-1.4844-0.48438-1.9219c-0.3125-0.4375-0.77344-0.65625-1.375-0.65625-0.59375 0-1.0547 0.21875-1.375 0.65625-0.3125 0.4375-0.46875 1.0781-0.46875 1.9219s0.15625 1.4844 0.46875 1.9219c0.32031 0.4375 0.78125 0.65625 1.375 0.65625z"/>
  </symbol>
  <symbol id="l" overflow="visible">
   <path d="m6.0469-1.8281c0.60156 0 1.0625-0.21875 1.375-0.65625 0.32031-0.4375 0.48438-1.0781 0.48438-1.9219s-0.16406-1.4844-0.48438-1.9219c-0.3125-0.4375-0.77344-0.65625-1.375-0.65625-0.60547 0-1.0703 0.22656-1.3906 0.67188-0.32422 0.4375-0.48438 1.0742-0.48438 1.9062 0 0.83594 0.16016 1.4766 0.48438 1.9219 0.32031 0.4375 0.78516 0.65625 1.3906 0.65625zm-1.875-5.7031c0.39453-0.51953 0.82812-0.89844 1.2969-1.1406 0.46875-0.25 1.0078-0.375 1.625-0.375 1.0938 0 1.9883 0.43359 2.6875 1.2969 0.69531 0.86719 1.0469 1.9805 1.0469 3.3438 0 1.3672-0.35156 2.4805-1.0469 3.3438-0.69922 0.86719-1.5938 1.2969-2.6875 1.2969-0.61719 0-1.1562-0.12109-1.625-0.35938-0.46875-0.25-0.90234-0.63281-1.2969-1.1562v1.2812h-2.8125v-12.266h2.8125z"/>
  </symbol>
  <symbol id="k" overflow="visible">
   <path d="m0.20312-8.8281h2.8125l2.375 5.9844 2.0156-5.9844h2.8281l-3.7188 9.6562c-0.375 0.98828-0.8125 1.6758-1.3125 2.0625-0.49219 0.39453-1.1406 0.59375-1.9531 0.59375h-1.6406v-1.8594h0.89062c0.47656 0 0.82812-0.078125 1.0469-0.23438 0.21875-0.14844 0.38281-0.41797 0.5-0.8125l0.078125-0.23438z"/>
  </symbol>
  <symbol id="j" overflow="visible">
   <path d="m1.4844-11.766h3.8594l2.6719 6.2969 2.7031-6.2969h3.8594v11.766h-2.875v-8.6094l-2.7031 6.3438h-1.9375l-2.7031-6.3438v8.6094h-2.875z"/>
  </symbol>
  <symbol id="i" overflow="visible">
   <path d="m1.2656-3.4375v-5.3906h2.8281v0.89062c0 0.46875-0.007812 1.0703-0.015625 1.7969v1.4375c0 0.71094 0.015625 1.2188 0.046875 1.5312 0.039062 0.3125 0.10938 0.54297 0.20312 0.6875 0.11328 0.1875 0.26562 0.33594 0.45312 0.4375 0.1875 0.09375 0.39844 0.14062 0.64062 0.14062 0.59375 0 1.0547-0.22266 1.3906-0.67188 0.33203-0.45703 0.5-1.0859 0.5-1.8906v-4.3594h2.8281v8.8281h-2.8281v-1.2812c-0.42969 0.52344-0.88281 0.90625-1.3594 1.1562-0.46875 0.23828-0.99219 0.35938-1.5625 0.35938-1.0234 0-1.7969-0.3125-2.3281-0.9375s-0.79688-1.5352-0.79688-2.7344z"/>
  </symbol>
  <symbol id="h" overflow="visible">
   <path d="m10.234-5.375v5.375h-2.8438v-4.0938c0-0.76953-0.015625-1.3008-0.046875-1.5938-0.03125-0.28906-0.09375-0.50391-0.1875-0.64062-0.10547-0.1875-0.25-0.32812-0.4375-0.42188-0.1875-0.10156-0.40625-0.15625-0.65625-0.15625-0.58594 0-1.0469 0.23047-1.3906 0.6875-0.33594 0.44922-0.5 1.0742-0.5 1.875v4.3438h-2.8125v-12.266h2.8125v4.7344c0.42578-0.51953 0.87891-0.89844 1.3594-1.1406 0.47656-0.25 1.0039-0.375 1.5781-0.375 1.0195 0 1.7969 0.32031 2.3281 0.95312 0.53125 0.625 0.79688 1.5312 0.79688 2.7188z"/>
  </symbol>
  <symbol id="f" overflow="visible">
   <path d="m9.5312-7.3594c0.36328-0.55078 0.78906-0.96875 1.2812-1.25 0.48828-0.28906 1.0234-0.4375 1.6094-0.4375 1.0195 0 1.7969 0.32031 2.3281 0.95312 0.53125 0.625 0.79688 1.5312 0.79688 2.7188v5.375h-2.8438v-4.6094c0.007813-0.0625 0.015625-0.12891 0.015625-0.20312v-0.3125c0-0.625-0.09375-1.0781-0.28125-1.3594-0.17969-0.28125-0.47656-0.42188-0.89062-0.42188-0.53125 0-0.94531 0.21875-1.2344 0.65625-0.29297 0.4375-0.44531 1.0781-0.45312 1.9219v4.3281h-2.8438v-4.6094c0-0.96875-0.085937-1.5938-0.25-1.875-0.16797-0.28125-0.46484-0.42188-0.89062-0.42188-0.54297 0-0.96484 0.22656-1.2656 0.67188-0.29297 0.4375-0.4375 1.0703-0.4375 1.8906v4.3438h-2.8281v-8.8281h2.8281v1.2969c0.35156-0.5 0.75391-0.875 1.2031-1.125 0.44531-0.25781 0.94141-0.39062 1.4844-0.39062 0.60156 0 1.1406 0.15234 1.6094 0.45312 0.46875 0.29297 0.82031 0.70312 1.0625 1.2344z"/>
  </symbol>
  <symbol id="u" overflow="visible">
   <path d="m8.625-2.1406h-4.75l-0.75 2.1406h-3.0469l4.3594-11.766h3.6094l4.3594 11.766h-3.0469zm-3.9844-2.1875h3.2188l-1.6094-4.6875z"/>
  </symbol>
  <symbol id="t" overflow="visible">
   <path d="m1.3594-8.8281h2.8125v8.8281h-2.8125zm0-3.4375h2.8125v2.2969h-2.8125z"/>
  </symbol>
  <symbol id="s" overflow="visible">
   <path d="m5.5-6.9844c-0.59375 0-1.0547 0.21875-1.375 0.65625-0.3125 0.4375-0.46875 1.0781-0.46875 1.9219s0.15625 1.4844 0.46875 1.9219c0.32031 0.4375 0.78125 0.65625 1.375 0.65625 0.60156 0 1.0625-0.21875 1.375-0.65625 0.32031-0.4375 0.48438-1.0781 0.48438-1.9219s-0.16406-1.4844-0.48438-1.9219c-0.3125-0.4375-0.77344-0.65625-1.375-0.65625zm1.8594 5.7031c-0.38672 0.52344-0.8125 0.90625-1.2812 1.1562-0.46875 0.23828-1.0117 0.35938-1.625 0.35938-1.0859 0-1.9805-0.42969-2.6875-1.2969-0.69922-0.86328-1.0469-1.9766-1.0469-3.3438 0-1.3633 0.34766-2.4727 1.0469-3.3281 0.70703-0.86328 1.6016-1.2969 2.6875-1.2969 0.61328 0 1.1562 0.125 1.625 0.375 0.46875 0.24219 0.89453 0.62109 1.2812 1.1406v-1.3125h2.8438v12.188h-2.8438z"/>
  </symbol>
  <symbol id="r" overflow="visible">
   <path d="m7.1562-12.266v1.8594h-1.5469c-0.40625 0-0.6875 0.074219-0.84375 0.21875-0.15625 0.13672-0.23438 0.38672-0.23438 0.75v0.60938h2.4062v2.0156h-2.4062v6.8125h-2.8281v-6.8125h-1.3906v-2.0156h1.3906v-0.60938c0-0.96875 0.26562-1.6797 0.79688-2.1406 0.53906-0.45703 1.375-0.6875 2.5-0.6875z"/>
  </symbol>
  <symbol id="e" overflow="visible">
   <path d="m5.5625-7.0156c-0.625 0-1.1055 0.22656-1.4375 0.67188-0.32422 0.44922-0.48438 1.0938-0.48438 1.9375s0.16016 1.4961 0.48438 1.9531c0.33203 0.44922 0.8125 0.67188 1.4375 0.67188 0.61328 0 1.082-0.22266 1.4062-0.67188 0.32031-0.45703 0.48438-1.1094 0.48438-1.9531s-0.16406-1.4883-0.48438-1.9375c-0.32422-0.44531-0.79297-0.67188-1.4062-0.67188zm0-2.0312c1.5078 0 2.6914 0.41406 3.5469 1.2344 0.85156 0.82422 1.2812 1.9609 1.2812 3.4062 0 1.4492-0.42969 2.5859-1.2812 3.4062-0.85547 0.82422-2.0391 1.2344-3.5469 1.2344-1.5312 0-2.7305-0.41016-3.5938-1.2344-0.85547-0.82031-1.2812-1.957-1.2812-3.4062 0-1.4453 0.42578-2.582 1.2812-3.4062 0.86328-0.82031 2.0625-1.2344 3.5938-1.2344z"/>
  </symbol>
  <symbol id="q" overflow="visible">
   <path d="m1.4844-11.766h3.3906l4.2812 8.0625v-8.0625h2.875v11.766h-3.3906l-4.2812-8.0781v8.0781h-2.875z"/>
  </symbol>
  <symbol id="p" overflow="visible">
   <path d="m10.234-5.375v5.375h-2.8438v-4.1094c0-0.75781-0.015625-1.2852-0.046875-1.5781-0.03125-0.28906-0.09375-0.50391-0.1875-0.64062-0.10547-0.1875-0.25-0.32812-0.4375-0.42188-0.1875-0.10156-0.40625-0.15625-0.65625-0.15625-0.58594 0-1.0469 0.23047-1.3906 0.6875-0.33594 0.44922-0.5 1.0742-0.5 1.875v4.3438h-2.8125v-8.8281h2.8125v1.2969c0.42578-0.51953 0.87891-0.89844 1.3594-1.1406 0.47656-0.25 1.0039-0.375 1.5781-0.375 1.0195 0 1.7969 0.32031 2.3281 0.95312 0.53125 0.625 0.79688 1.5312 0.79688 2.7188z"/>
  </symbol>
  <symbol id="o" overflow="visible">
   <path d="m1.4844-11.766h5.0312c1.5 0 2.6484 0.33594 3.4531 1 0.80078 0.66797 1.2031 1.6172 1.2031 2.8438 0 1.2305-0.40234 2.1797-1.2031 2.8438-0.80469 0.66797-1.9531 1-3.4531 1h-2v4.0781h-3.0312zm3.0312 2.2031v3.2812h1.6719c0.59375 0 1.0469-0.14062 1.3594-0.42188 0.32031-0.28906 0.48438-0.69531 0.48438-1.2188 0-0.53125-0.16406-0.9375-0.48438-1.2188-0.3125-0.28125-0.76562-0.42188-1.3594-0.42188z"/>
  </symbol>
  <symbol id="n" overflow="visible">
   <path d="m1.3594-8.8281h2.8125v8.6719c0 1.1758-0.28906 2.0781-0.85938 2.7031-0.5625 0.625-1.3828 0.9375-2.4531 0.9375h-1.3906v-1.8594h0.48438c0.53125 0 0.89453-0.12109 1.0938-0.35938 0.20703-0.24219 0.3125-0.71484 0.3125-1.4219zm0-3.4375h2.8125v2.2969h-2.8125z"/>
  </symbol>
  <symbol id="m" overflow="visible">
   <path d="m8.4844-8.5469v2.2969c-0.38672-0.25781-0.77344-0.45312-1.1562-0.57812-0.38672-0.125-0.78906-0.1875-1.2031-0.1875-0.78125 0-1.3906 0.23047-1.8281 0.6875-0.4375 0.46094-0.65625 1.1016-0.65625 1.9219 0 0.82422 0.21875 1.4688 0.65625 1.9375 0.4375 0.46094 1.0469 0.6875 1.8281 0.6875 0.44531 0 0.86719-0.066406 1.2656-0.20312 0.39453-0.13281 0.75781-0.32812 1.0938-0.57812v2.2969c-0.4375 0.16797-0.88672 0.28906-1.3438 0.375-0.44922 0.082031-0.90234 0.125-1.3594 0.125-1.5938 0-2.8438-0.40625-3.75-1.2188-0.89844-0.82031-1.3438-1.9609-1.3438-3.4219 0-1.457 0.44531-2.5938 1.3438-3.4062 0.90625-0.82031 2.1562-1.2344 3.75-1.2344 0.45703 0 0.91016 0.042969 1.3594 0.125 0.44531 0.085937 0.89453 0.21094 1.3438 0.375z"/>
  </symbol>
 </defs>
 <g>
  <path d="m104.14 174.91c2.293-41.164 21.051-77.5 49.531-102.98s66.676-40.086 107.84-37.797c41.164 2.293 77.5 21.051 102.98 49.531 25.477 28.48 40.086 66.676 37.797 107.84-2.293 41.164-21.051 77.5-49.531 102.98-28.48 25.477-66.676 40.086-107.84 37.797-41.164-2.293-77.504-21.051-102.98-49.531-25.477-28.48-40.086-66.676-37.797-107.84zm32.762 1.8242c-1.7188 30.887 8.8672 61.086 29.488 84.137 20.684 23.125 49.363 36.922 80.344 38.645 30.887 1.7188 61.086-8.8672 84.141-29.492 23.125-20.684 36.922-49.363 38.645-80.344 1.7188-30.883-8.8672-61.086-29.488-84.137-20.684-23.125-49.363-36.922-80.348-38.645-30.887-1.7188-61.086 8.8672-84.141 29.488-23.125 20.684-36.922 49.363-38.645 80.348z"/>
  <path d="m308.33 162.59c-0.37109 6.7695 4.8164 12.559 11.582 12.93 6.7695 0.37109 12.559-4.8164 12.93-11.582 0.47266-8.4727-0.76953-16.664-3.4219-24.234-2.75-7.8477-7.0312-15.02-12.504-21.141-5.457-6.1016-12.113-11.148-19.629-14.762-7.2422-3.4844-15.25-5.6289-23.711-6.1016-6.7695-0.37109-12.559 4.8164-12.93 11.582-0.37109 6.7695 4.8164 12.559 11.582 12.93 5.2148 0.28906 10.105 1.5898 14.484 3.6953 4.5547 2.1914 8.6055 5.2656 11.941 8.9961 3.3203 3.7109 5.9219 8.0781 7.6016 12.871 1.6133 4.6016 2.3672 9.6094 2.0742 14.812z"/>
  <path d="m335.43 297.89 32.457-32.457 51.543 51.543-32.457 32.457z" fill-rule="evenodd"/>
  <path d="m583.68 513.68c16.551-16.551 16.551-43.637 0-60.188l-143.98-143.98-60.188 60.188 143.98 143.98c16.551 16.551 43.637 16.551 60.188 0z" fill-rule="evenodd"/>
  <use x="70" y="608.445312" xlink:href="#v"/>
  <use x="81.851562" y="608.445312" xlink:href="#d"/>
  <use x="89.8125" y="608.445312" xlink:href="#b"/>
  <use x="100.765625" y="608.445312" xlink:href="#c"/>
  <use x="111.664062" y="608.445312" xlink:href="#a"/>
  <use x="119.382812" y="608.445312" xlink:href="#b"/>
  <use x="130.332031" y="608.445312" xlink:href="#g"/>
  <use x="147.515625" y="608.445312" xlink:href="#l"/>
  <use x="159.074219" y="608.445312" xlink:href="#k"/>
  <use x="175.222656" y="608.445312" xlink:href="#j"/>
  <use x="191.289062" y="608.445312" xlink:href="#i"/>
  <use x="202.785156" y="608.445312" xlink:href="#h"/>
  <use x="214.28125" y="608.445312" xlink:href="#c"/>
  <use x="225.179688" y="608.445312" xlink:href="#f"/>
  <use x="242.003906" y="608.445312" xlink:href="#f"/>
  <use x="258.832031" y="608.445312" xlink:href="#c"/>
  <use x="269.726562" y="608.445312" xlink:href="#g"/>
  <use x="286.910156" y="608.445312" xlink:href="#u"/>
  <use x="299.40625" y="608.445312" xlink:href="#a"/>
  <use x="307.125" y="608.445312" xlink:href="#t"/>
  <use x="312.660156" y="608.445312" xlink:href="#s"/>
  <use x="70" y="624.589844" xlink:href="#r"/>
  <use x="77.023438" y="624.589844" xlink:href="#d"/>
  <use x="84.988281" y="624.589844" xlink:href="#e"/>
  <use x="96.082031" y="624.589844" xlink:href="#f"/>
  <use x="118.53125" y="624.589844" xlink:href="#a"/>
  <use x="126.25" y="624.589844" xlink:href="#h"/>
  <use x="137.746094" y="624.589844" xlink:href="#b"/>
  <use x="154.320312" y="624.589844" xlink:href="#q"/>
  <use x="167.832031" y="624.589844" xlink:href="#e"/>
  <use x="178.925781" y="624.589844" xlink:href="#i"/>
  <use x="190.421875" y="624.589844" xlink:href="#p"/>
  <use x="207.542969" y="624.589844" xlink:href="#o"/>
  <use x="219.375" y="624.589844" xlink:href="#d"/>
  <use x="227.339844" y="624.589844" xlink:href="#e"/>
  <use x="238.433594" y="624.589844" xlink:href="#n"/>
  <use x="243.96875" y="624.589844" xlink:href="#b"/>
  <use x="254.921875" y="624.589844" xlink:href="#m"/>
  <use x="264.492187" y="624.589844" xlink:href="#a"/>
 </g>
</svg>
